<?xml version="1.0" encoding="utf-8"?>
<!-- Generator: Adobe Illustrator 16.0.0, SVG Export Plug-In . SVG Version: 6.00 Build 0)  -->
<!DOCTYPE svg PUBLIC "-//W3C//DTD SVG 1.1//EN" "http://www.w3.org/Graphics/SVG/1.1/DTD/svg11.dtd">
<svg version="1.1" id="Capa_1" xmlns="http://www.w3.org/2000/svg" xmlns:xlink="http://www.w3.org/1999/xlink" x="0px" y="0px"
	 width="1920px" height="1080px" viewBox="0 0 1920 1080" enable-background="new 0 0 1920 1080" xml:space="preserve">
<g>
	<g>
		<path fill="#FFFFFF" d="M1461.641,148.983c-23.205-2.116-43.727,14.981-45.843,38.184l-5.59,61.317
			C1315.373,99.55,1150.749,0,960,0C754.798,0,573.959,117.117,484.188,292.895c-10.598,20.75-2.367,46.162,18.383,56.759
			c20.755,10.598,46.162,2.369,56.759-18.383C635.304,182.509,787.869,84.375,960,84.375c156.889,0,298.475,81.698,379.588,209.688
			l-60.152-42.961c-18.961-13.54-45.31-9.148-58.85,9.811c-13.54,18.961-9.148,45.307,9.811,58.85l182.408,130.276
			c26.734,19.059,63.608,1.612,66.532-30.499l20.483-224.712C1501.938,171.623,1484.844,151.099,1461.641,148.983z"/>
	</g>
</g>
<g>
	<g>
		<path fill="#FFFFFF" d="M1417.429,730.346c-20.752-10.596-46.162-2.366-56.759,18.383
			C1284.696,897.49,1132.131,995.625,960,995.625c-156.889,0-298.475-81.698-379.588-209.688l60.152,42.961
			c18.961,13.541,45.308,9.148,58.85-9.811c13.54-18.961,9.148-45.307-9.811-58.849L507.195,629.961
			c-26.407-18.866-63.579-1.943-66.532,30.499L420.18,885.172c-2.116,23.203,14.98,43.728,38.182,45.843
			c23.232,2.111,43.729-15.002,45.843-38.184l5.59-61.317C604.627,980.45,769.251,1080,960,1080
			c205.202,0,386.041-117.117,475.812-292.896C1446.409,766.354,1438.179,740.943,1417.429,730.346z"/>
	</g>
</g>
</svg>
